<?xml version="1.0" encoding="UTF-8"?>
<svg id="Capa_2" data-name="Capa 2" xmlns="http://www.w3.org/2000/svg" viewBox="0 0 101.23 36.74">
  <defs>
    <style>
      .cls-1 {
        fill: #fff;
      }
    </style>
  </defs>
  <g id="Diseño">
    <g>
      <path class="cls-1" d="M41.4,0v8.5c-1.67-1.23-3.56-2.12-5.77-2.12-2.74,0-5.09.95-7,2.83-1.87,1.84-2.81,4.17-2.81,6.9,0,2.74.95,5.06,2.81,6.9,1.9,1.88,4.26,2.83,7,2.83,2.21,0,4.1-.87,5.77-2.1v1.78h3.68v-6.91s0-5.01,0-5.01h0s0-13.6,0-13.6h-3.68ZM39.94,20.46c-1.2,1.2-2.61,1.79-4.32,1.79-1.7,0-3.17-.6-4.35-1.79s-1.75-2.63-1.75-4.35.59-3.19,1.75-4.35c1.18-1.18,2.65-1.78,4.35-1.78,1.71,0,3.12.58,4.32,1.78,1.16,1.16,1.75,2.63,1.75,4.35s-.59,3.19-1.75,4.35"/>
      <rect class="cls-1" x="0" y="0" width="3.68" height="3.44"/>
      <rect class="cls-1" x="0" y="6.69" width="3.68" height="18.84"/>
      <path class="cls-1" d="M99.67,7.37c.43,0,.8.15,1.1.46.31.31.46.67.46,1.1s-.15.8-.46,1.1c-.31.31-.67.46-1.1.46s-.8-.15-1.1-.46c-.31-.31-.46-.67-.46-1.1s.15-.8.46-1.1c.31-.31.67-.46,1.1-.46M100.58,9.84c.25-.25.38-.56.38-.92s-.13-.67-.38-.92c-.25-.25-.55-.38-.91-.38s-.66.13-.91.38-.38.56-.38.92.13.67.38.92.55.38.91.38.66-.13.91-.38M100.1,9.14l.33.59h-.5s-.23-.47-.23-.47h-.16v.47s-.46,0-.46,0v-1.59s.64,0,.64,0c.35,0,.62.22.62.53,0,.21-.08.37-.24.48M99.54,8.55v.31h.14c.12,0,.19-.06.19-.16,0-.11-.06-.16-.19-.16h-.14Z"/>
      <path class="cls-1" d="M94.47,9.37c-1.88-1.88-4.2-2.84-6.9-2.84-2.74,0-5.08.95-6.96,2.83-1.89,1.85-2.84,4.17-2.84,6.9,0,2.72.95,5.05,2.84,6.93,0,0,0,0,0,0,1.89,1.85,4.23,2.79,6.96,2.79s5-.94,6.9-2.8c1.9-1.9,2.87-4.24,2.87-6.93s-.97-5.03-2.87-6.9"/>
      <path class="cls-1" d="M72.37,9.37c-1.88-1.88-4.2-2.84-6.9-2.84-2.74,0-5.08.95-6.96,2.83-1.89,1.85-2.84,4.17-2.84,6.9,0,2.72.95,5.05,2.84,6.93,0,0,0,0,0,0,1.89,1.86,4.23,2.8,6.96,2.8,2.68,0,5-.94,6.9-2.8,1.9-1.9,2.87-4.24,2.87-6.93s-.97-5.03-2.87-6.9M65.47,22.4c-1.7,0-3.17-.6-4.35-1.79-1.16-1.16-1.75-2.63-1.75-4.35s.59-3.19,1.75-4.35c1.18-1.18,2.65-1.78,4.35-1.78s3.12.58,4.32,1.78c1.16,1.16,1.75,2.63,1.75,4.35s-.59,3.19-1.75,4.35c-1.2,1.2-2.61,1.79-4.32,1.79"/>
      <path class="cls-1" d="M71.54,27c0,1.73-.59,3.19-1.75,4.35-1.2,1.2-2.61,1.78-4.32,1.78s-3.17-.6-4.35-1.78-1.75-2.63-1.75-4.35h-3.7c0,2.72.95,5.05,2.84,6.93,0,0,0,0,0,0,1.89,1.86,4.23,2.8,6.96,2.8s5-.94,6.9-2.8c1.9-1.9,2.87-4.24,2.87-6.93h-3.7Z"/>
      <rect class="cls-1" x="48.84" y="6.69" width="3.68" height="18.84"/>
      <rect class="cls-1" x="48.84" y="0" width="3.68" height="3.44"/>
      <path class="cls-1" d="M16.02,6.32c-2.04,0-3.96.56-5.27,1.67v-1.29s-1,0-1,0h-2.68v18.84h3.68v-9.89c0-3.57,2.07-5.7,5.14-5.7,2.51,0,4.2,1.71,4.2,4.33v11.26h3.72v-11.26c0-4.63-3.27-7.95-7.78-7.95"/>
    </g>
  </g>
</svg>