<?xml version="1.0" encoding="UTF-8"?>
<svg id="Capa_2" data-name="Capa 2" xmlns="http://www.w3.org/2000/svg" viewBox="0 0 278.93 67.57">
  <defs>
    <style>
      .cls-1 {
        fill: #606eb2;
      }

      .cls-2 {
        fill: #b2b2b2;
      }
    </style>
  </defs>
  <g id="Menú">
    <g>
      <path class="cls-2" d="M76.14,0v15.63c-3.06-2.26-6.55-3.91-10.61-3.91-5.04,0-9.37,1.75-12.87,5.2-3.43,3.39-5.18,7.66-5.18,12.7s1.74,9.31,5.18,12.7c3.5,3.45,7.83,5.21,12.87,5.21,4.06,0,7.55-1.6,10.61-3.86v3.28h6.77v-21.94h0V0h-6.77ZM73.45,37.64c-2.21,2.21-4.81,3.28-7.94,3.28s-5.83-1.11-8.01-3.28c-2.14-2.14-3.22-4.83-3.22-8.01s1.08-5.87,3.22-8.01c2.18-2.18,4.87-3.28,8.01-3.28s5.74,1.07,7.94,3.28c2.14,2.14,3.22,4.83,3.22,8.01s-1.08,5.87-3.22,8.01"/>
      <rect class="cls-2" y="0" width="6.77" height="6.33"/>
      <rect class="cls-2" y="12.3" width="6.77" height="34.66"/>
      <path class="cls-1" d="M183.33,13.55c.79,0,1.47.28,2.03.84.56.56.84,1.24.84,2.03s-.28,1.47-.84,2.03c-.56.56-1.24.84-2.03.84s-1.47-.28-2.03-.84-.84-1.24-.84-2.03.28-1.47.84-2.03c.56-.56,1.24-.84,2.03-.84M185,18.11c.46-.47.69-1.03.69-1.69s-.23-1.22-.69-1.69c-.46-.47-1.02-.7-1.67-.7s-1.22.23-1.68.7c-.46.47-.69,1.03-.69,1.69s.23,1.22.69,1.69,1.02.7,1.68.7,1.21-.23,1.67-.7M184.12,16.8l.6,1.08h-.91l-.42-.87h-.3v.87h-.85v-2.93h1.18c.64,0,1.13.4,1.13.97,0,.38-.14.67-.43.88M183.09,15.72v.58h.26c.22,0,.36-.12.36-.29,0-.2-.12-.29-.36-.29h-.26Z"/>
      <path class="cls-1" d="M173.76,17.23c-3.46-3.46-7.73-5.22-12.68-5.22s-9.35,1.76-12.8,5.2c-3.47,3.4-5.23,7.67-5.23,12.7s1.75,9.29,5.21,12.75c0,0,0,0,.01.01,3.48,3.41,7.78,5.14,12.8,5.14s9.19-1.73,12.68-5.15c3.5-3.5,5.28-7.79,5.28-12.75s-1.78-9.26-5.28-12.68"/>
      <path class="cls-1" d="M133.11,17.23c-3.46-3.46-7.73-5.22-12.69-5.22s-9.35,1.76-12.8,5.2c-3.47,3.4-5.23,7.68-5.23,12.7s1.76,9.29,5.22,12.75c0,0,0,0,.01.01,3.48,3.41,7.79,5.14,12.8,5.14s9.19-1.73,12.69-5.15c3.5-3.5,5.28-7.79,5.28-12.75s-1.78-9.26-5.28-12.68M120.43,41.21c-3.13,0-5.83-1.1-8.01-3.28-2.14-2.14-3.22-4.83-3.22-8.01s1.08-5.87,3.22-8.01c2.18-2.18,4.87-3.28,8.01-3.28s5.74,1.07,7.94,3.28c2.14,2.14,3.22,4.83,3.22,8.01s-1.08,5.87-3.22,8.01c-2.21,2.21-4.81,3.28-7.94,3.28"/>
      <path class="cls-1" d="M131.59,49.67c0,3.18-1.08,5.87-3.22,8.01-2.21,2.21-4.81,3.28-7.94,3.28s-5.83-1.1-8.01-3.28c-2.14-2.14-3.22-4.83-3.22-8.01h-6.8c0,5,1.75,9.29,5.22,12.75,0,0,0,0,.01.01,3.48,3.41,7.79,5.14,12.8,5.14s9.19-1.73,12.69-5.15c3.5-3.5,5.28-7.79,5.28-12.75h-6.8Z"/>
      <rect class="cls-2" x="89.83" y="12.3" width="6.77" height="34.66"/>
      <rect class="cls-2" x="89.83" y="0" width="6.77" height="6.33"/>
      <path class="cls-2" d="M29.47,11.62c-3.75,0-7.29,1.03-9.7,3.06v-2.38h-6.78v34.66h6.78v-18.2c0-6.57,3.81-10.49,9.45-10.49,4.62,0,7.72,3.15,7.72,7.97v20.72h6.84v-20.72c0-8.51-6.02-14.62-14.31-14.62"/>
      <g>
        <path class="cls-2" d="M201.92,26.12l-.87,2.4h-2.33l4-10.18h2.32l4,10.18h-2.33l-.87-2.4h-3.92ZM203.89,20.89l-1.24,3.34h2.48l-1.24-3.34Z"/>
        <path class="cls-2" d="M212.15,28.52h-1.97v-10.18h1.97v10.18Z"/>
        <path class="cls-2" d="M215.93,20.15c-.21.2-.49.3-.85.3-.33,0-.6-.1-.79-.3-.2-.2-.29-.46-.29-.79s.1-.59.3-.79c.2-.2.46-.3.79-.3.36,0,.64.1.85.3.21.2.31.46.31.79s-.1.59-.31.79ZM216.1,28.52h-1.97v-7.12h1.97v7.12Z"/>
        <path class="cls-2" d="M220,22.27c.06-.08.14-.17.24-.28.1-.11.33-.26.69-.45.35-.19.72-.28,1.11-.28.81,0,1.48.28,1.99.84.51.56.77,1.32.77,2.28v4.14h-1.96v-3.92c0-.44-.13-.79-.39-1.05-.26-.27-.59-.4-1-.4-.45,0-.8.15-1.06.44-.26.29-.39.7-.39,1.24v3.7h-1.96v-7.12h1.96v.87Z"/>
        <path class="cls-2" d="M228.25,25.61c.08.39.28.72.62.98.34.27.76.4,1.27.4.37,0,.71-.07,1.02-.22.31-.14.54-.29.66-.44l.21-.22,1.01,1.31-.13.13c-.06.06-.19.16-.38.3-.19.14-.4.27-.62.38-.22.11-.5.21-.85.29-.35.09-.71.13-1.08.13-1.05,0-1.94-.36-2.68-1.09-.74-.73-1.11-1.6-1.11-2.61s.36-1.89,1.09-2.62c.73-.73,1.6-1.09,2.62-1.09s1.86.34,2.54,1.02c.68.68,1.01,1.53,1.01,2.54l-.07.79h-5.16ZM228.87,23.29c-.29.24-.5.56-.61.94h3.27c-.08-.38-.26-.69-.54-.94-.29-.25-.64-.37-1.05-.37s-.77.12-1.06.36Z"/>
        <path class="cls-2" d="M238.74,27.79c-.06.07-.14.15-.24.24-.1.1-.32.22-.66.38-.34.16-.69.24-1.06.24-.71,0-1.29-.2-1.73-.59-.44-.4-.67-.87-.67-1.44s.19-1.07.56-1.46c.37-.39.89-.64,1.55-.76l2.26-.4c0-.3-.11-.54-.33-.73-.22-.19-.52-.28-.91-.28-.32,0-.61.06-.88.18-.27.12-.45.25-.56.37l-.16.17-1.09-1.09s.07-.09.12-.15c.05-.06.16-.17.33-.33.17-.16.36-.29.56-.42.2-.12.47-.23.8-.33.33-.1.67-.15,1.01-.15.9,0,1.63.27,2.2.81.57.54.85,1.21.85,2.03v4.43h-1.96v-.72ZM238.35,26.64c.26-.28.4-.67.4-1.17v-.22l-1.6.29c-.53.09-.8.35-.8.8,0,.48.31.72.94.72.44,0,.8-.14,1.06-.42Z"/>
        <path class="cls-2" d="M246.7,21.51c.35.17.6.34.75.5l.22.26v-3.92h1.96v10.18h-1.96v-.87s-.05.06-.09.11c-.04.04-.13.12-.26.24-.13.12-.27.22-.42.31-.15.09-.35.17-.59.25-.24.07-.49.11-.75.11-.92,0-1.72-.36-2.4-1.08-.68-.72-1.02-1.59-1.02-2.63s.34-1.91,1.02-2.63c.68-.72,1.48-1.08,2.4-1.08.41,0,.79.09,1.14.26ZM247.16,26.37c.34-.37.51-.84.51-1.41s-.17-1.04-.51-1.41c-.34-.37-.75-.55-1.23-.55s-.89.18-1.23.55c-.34.37-.51.84-.51,1.41s.17,1.04.51,1.41c.34.37.75.55,1.23.55s.89-.18,1.23-.55Z"/>
        <path class="cls-2" d="M257.55,27.55c-.75.74-1.63,1.11-2.65,1.11s-1.9-.37-2.65-1.11c-.75-.74-1.13-1.61-1.13-2.59s.38-1.85,1.13-2.59c.75-.74,1.64-1.11,2.65-1.11s1.9.37,2.65,1.11c.75.74,1.12,1.61,1.12,2.59s-.37,1.85-1.12,2.59ZM253.67,26.3c.34.36.75.54,1.23.54s.88-.18,1.23-.54c.35-.36.52-.81.52-1.34s-.17-.98-.52-1.35c-.34-.36-.75-.55-1.23-.55s-.88.18-1.23.55c-.35.36-.52.81-.52,1.35s.17.98.52,1.34Z"/>
        <path class="cls-2" d="M264.41,23.29c-.15-.05-.36-.07-.65-.08-.52,0-.92.16-1.22.49-.3.33-.45.79-.45,1.4v3.41h-1.96v-7.12h1.96v.87c.06-.07.14-.15.24-.26.1-.11.33-.25.69-.42s.72-.26,1.11-.26h.29v1.97Z"/>
        <path class="cls-2" d="M267.13,25.61c.08.39.28.72.62.98.34.27.76.4,1.27.4.37,0,.71-.07,1.03-.22.31-.14.54-.29.66-.44l.2-.22,1.01,1.31-.13.13c-.06.06-.18.16-.38.3-.19.14-.4.27-.62.38-.22.11-.5.21-.85.29-.35.09-.71.13-1.08.13-1.05,0-1.94-.36-2.68-1.09-.74-.73-1.11-1.6-1.11-2.61s.36-1.89,1.09-2.62c.73-.73,1.6-1.09,2.62-1.09s1.86.34,2.54,1.02c.68.68,1.01,1.53,1.01,2.54l-.07.79h-5.16ZM267.75,23.29c-.29.24-.5.56-.61.94h3.27c-.07-.38-.26-.69-.54-.94-.29-.25-.64-.37-1.05-.37s-.77.12-1.06.36Z"/>
        <path class="cls-2" d="M277.7,23.5s-.07-.09-.14-.16c-.06-.07-.2-.15-.4-.26s-.41-.16-.62-.16c-.27,0-.48.06-.64.17-.16.12-.23.25-.23.4,0,.18.11.34.33.46.22.12.49.23.81.33.32.1.64.21.97.35.33.14.6.35.82.65.22.3.33.67.33,1.12,0,.64-.25,1.17-.76,1.6-.5.43-1.2.65-2.08.65-.38,0-.74-.04-1.08-.13-.34-.09-.62-.2-.83-.33-.21-.13-.4-.25-.56-.38-.16-.13-.27-.23-.34-.32l-.1-.15,1.09-1.09c.04.06.1.13.18.22.08.09.26.21.52.35.27.15.54.22.82.22.31,0,.55-.06.71-.18.16-.12.24-.28.24-.47s-.11-.36-.33-.49-.5-.24-.82-.34c-.33-.1-.65-.21-.97-.35-.32-.14-.59-.35-.81-.64-.22-.29-.33-.65-.33-1.09,0-.57.27-1.09.8-1.55.53-.46,1.19-.69,1.96-.69.49,0,.95.09,1.36.28.41.18.7.36.86.54l.25.28-1.01,1.16Z"/>
      </g>
      <g>
        <path class="cls-2" d="M199.71,32.22c.13-.13.28-.19.46-.19s.34.06.47.19c.13.12.19.28.19.46s-.06.34-.19.46c-.13.13-.28.19-.47.19s-.34-.06-.46-.19c-.12-.13-.19-.28-.19-.46s.06-.34.19-.46ZM199.67,35.01h1.01v6.98h-1.01v-6.98Z"/>
        <path class="cls-2" d="M203.93,36.02s.05-.07.08-.12.13-.15.27-.28c.14-.14.29-.26.45-.36.16-.1.37-.19.63-.28.26-.08.53-.12.81-.12.84,0,1.53.27,2.05.82.52.54.79,1.27.79,2.16v4.14h-1.02v-4.14c0-.61-.18-1.1-.53-1.47-.35-.37-.81-.56-1.36-.56-.62,0-1.14.22-1.55.65-.42.44-.62.99-.62,1.67v3.85h-1.02v-6.98h1.02v1.01Z"/>
        <path class="cls-2" d="M212.83,41.98l-2.84-6.98h1.09l2.26,5.59,2.25-5.59h1.09l-2.84,6.98h-1.01Z"/>
        <path class="cls-2" d="M218.06,32.22c.13-.13.28-.19.46-.19s.34.06.47.19c.13.12.19.28.19.46s-.06.34-.19.46-.28.19-.47.19-.34-.06-.46-.19c-.12-.13-.19-.28-.19-.46s.06-.34.19-.46ZM218.03,35.01h1.01v6.98h-1.01v-6.98Z"/>
        <path class="cls-2" d="M224.78,36.53c-.04-.06-.09-.12-.17-.2-.07-.08-.24-.18-.51-.32-.27-.13-.55-.2-.85-.2-.39,0-.7.1-.94.31-.24.2-.36.44-.36.71s.13.5.39.67c.26.17.57.31.94.41.37.1.74.22,1.11.35.37.13.68.34.94.64.26.3.39.67.39,1.13,0,.6-.23,1.1-.69,1.5-.46.4-1.08.6-1.85.6-.33,0-.64-.04-.93-.13-.29-.08-.53-.19-.72-.3-.19-.12-.35-.24-.49-.36s-.24-.22-.31-.31l-.09-.14.73-.72s.04.07.08.11c.03.05.11.13.22.24.12.12.24.22.37.31.13.09.3.17.51.25.21.07.42.11.63.11.49,0,.87-.11,1.13-.33.26-.22.39-.49.39-.83,0-.29-.13-.52-.39-.71-.26-.18-.58-.33-.94-.43-.37-.11-.74-.22-1.1-.35-.37-.13-.68-.34-.95-.62-.26-.28-.39-.64-.39-1.09,0-.52.22-.98.66-1.38s1-.59,1.66-.59c.27,0,.53.03.79.1.26.06.47.14.63.23.17.09.31.19.44.28.13.1.22.17.28.23l.11.11-.73.72Z"/>
        <path class="cls-2" d="M227.43,32.22c.12-.13.28-.19.46-.19s.34.06.46.19c.12.12.19.28.19.46s-.06.34-.19.46c-.13.13-.28.19-.46.19s-.34-.06-.46-.19c-.13-.13-.19-.28-.19-.46s.06-.34.19-.46ZM227.39,35.01h1.02v6.98h-1.02v-6.98Z"/>
        <path class="cls-2" d="M231.67,36.1s.05-.07.1-.13c.05-.06.15-.16.31-.3.15-.14.32-.27.5-.38.18-.11.41-.21.69-.3.28-.09.57-.13.87-.13.89,0,1.67.36,2.34,1.07.67.71,1.01,1.57,1.01,2.57s-.33,1.85-1,2.56c-.67.71-1.45,1.07-2.34,1.07-.3,0-.59-.04-.86-.13-.28-.08-.51-.19-.7-.3-.19-.12-.35-.24-.49-.36s-.24-.22-.31-.31l-.11-.14v1.09h-1.01v-10.18h1.01v4.29ZM232.43,40.38c.51.54,1.08.81,1.71.81s1.14-.26,1.61-.78c.48-.52.71-1.16.71-1.9s-.24-1.38-.71-1.9c-.48-.52-1.01-.78-1.61-.78s-1.2.27-1.71.8c-.51.54-.76,1.16-.76,1.88s.26,1.34.76,1.88Z"/>
        <path class="cls-2" d="M240.31,41.98h-1.01v-10.18h1.01v10.18Z"/>
        <path class="cls-2" d="M243.12,38.86c.04.63.3,1.17.78,1.63.48.46,1.04.69,1.69.69.44,0,.84-.1,1.21-.29.37-.19.64-.39.8-.58l.25-.28.65.65s-.07.09-.12.16c-.05.07-.17.18-.35.35-.18.16-.38.31-.59.43-.21.13-.48.24-.82.35-.33.11-.67.16-1.02.16-.95,0-1.77-.35-2.46-1.06-.69-.71-1.03-1.57-1.03-2.57s.34-1.87,1.02-2.57c.68-.71,1.48-1.06,2.4-1.06s1.75.33,2.38.99c.64.66.96,1.49.96,2.5l-.07.52h-5.67ZM243.92,36.45c-.45.43-.72.94-.8,1.53h4.73c-.08-.63-.33-1.15-.76-1.56-.43-.41-.95-.62-1.57-.62s-1.14.21-1.6.65Z"/>
        <path class="cls-2" d="M254.06,36.53c-.04-.06-.09-.12-.17-.2-.07-.08-.24-.18-.51-.32-.27-.13-.55-.2-.85-.2-.39,0-.7.1-.94.31-.24.2-.36.44-.36.71s.13.5.39.67c.26.17.57.31.94.41.37.1.74.22,1.11.35.37.13.68.34.94.64.26.3.39.67.39,1.13,0,.6-.23,1.1-.69,1.5-.46.4-1.08.6-1.85.6-.33,0-.64-.04-.93-.13-.29-.08-.53-.19-.72-.3-.19-.12-.35-.24-.49-.36-.14-.12-.24-.22-.31-.31l-.09-.14.73-.72s.05.07.08.11c.03.05.11.13.22.24.12.12.24.22.37.31.13.09.3.17.51.25.21.07.42.11.63.11.49,0,.87-.11,1.13-.33.26-.22.39-.49.39-.83,0-.29-.13-.52-.39-.71-.26-.18-.58-.33-.94-.43-.37-.11-.73-.22-1.1-.35-.37-.13-.68-.34-.95-.62-.26-.28-.39-.64-.39-1.09,0-.52.22-.98.66-1.38s1-.59,1.66-.59c.27,0,.53.03.79.1.26.06.47.14.64.23.17.09.31.19.44.28.13.1.22.17.28.23l.11.11-.73.72Z"/>
        <path class="cls-2" d="M256.85,40.88c.13-.13.31-.2.53-.2s.4.07.53.2c.13.14.19.31.19.52s-.07.39-.19.52c-.13.14-.31.2-.53.2s-.4-.07-.53-.2c-.13-.14-.19-.31-.19-.52s.07-.39.19-.52Z"/>
      </g>
    </g>
  </g>
</svg>