<?xml version="1.0" encoding="UTF-8"?>
<svg id="Capa_2" data-name="Capa 2" xmlns="http://www.w3.org/2000/svg" viewBox="0 0 121.96 44.26">
  <defs>
    <style>
      .cls-1 {
        fill: #606eb2;
      }

      .cls-2 {
        fill: #b0b0b0;
      }
    </style>
  </defs>
  <g id="Diseño">
    <g>
      <path class="cls-2" d="M49.87,0v10.24c-2.01-1.48-4.29-2.56-6.95-2.56-3.3,0-6.14,1.15-8.43,3.41-2.25,2.22-3.39,5.02-3.39,8.32s1.14,6.1,3.39,8.32c2.29,2.26,5.13,3.41,8.43,3.41,2.66,0,4.95-1.05,6.95-2.53v2.15h4.44v-14.37h0V0h-4.44ZM48.11,24.65c-1.45,1.45-3.15,2.15-5.2,2.15s-3.82-.72-5.24-2.15c-1.4-1.4-2.11-3.16-2.11-5.24s.71-3.84,2.11-5.24c1.43-1.43,3.19-2.15,5.24-2.15s3.76.7,5.2,2.15c1.4,1.4,2.11,3.16,2.11,5.24s-.71,3.84-2.11,5.24"/>
      <rect class="cls-2" y="0" width="4.44" height="4.14"/>
      <rect class="cls-2" y="8.06" width="4.44" height="22.7"/>
      <path class="cls-1" d="M120.08,8.87c.52,0,.96.18,1.33.55.37.37.55.81.55,1.33s-.18.96-.55,1.33c-.37.37-.81.55-1.33.55s-.96-.18-1.33-.55-.55-.81-.55-1.33.18-.96.55-1.33c.37-.37.81-.55,1.33-.55M121.17,11.86c.3-.31.45-.67.45-1.11s-.15-.8-.45-1.11c-.3-.31-.67-.46-1.09-.46s-.8.15-1.1.46c-.3.31-.45.67-.45,1.11s.15.8.45,1.11.67.46,1.1.46.79-.15,1.09-.46M120.6,11.01l.39.71h-.6l-.27-.57h-.2v.57h-.56v-1.92h.77c.42,0,.74.26.74.64,0,.25-.09.44-.28.58M119.92,10.3v.38h.17c.15,0,.23-.08.23-.19,0-.13-.08-.19-.23-.19h-.17Z"/>
      <path class="cls-1" d="M113.81,11.29c-2.27-2.27-5.06-3.42-8.31-3.42s-6.12,1.15-8.38,3.41c-2.27,2.23-3.42,5.03-3.42,8.32s1.15,6.08,3.42,8.35c0,0,0,0,0,0,2.28,2.23,5.1,3.37,8.38,3.37s6.02-1.13,8.31-3.38c2.29-2.29,3.46-5.1,3.46-8.35s-1.17-6.06-3.46-8.31"/>
      <path class="cls-1" d="M87.19,11.29c-2.27-2.27-5.06-3.42-8.31-3.42s-6.12,1.15-8.38,3.41c-2.27,2.23-3.42,5.03-3.42,8.32s1.15,6.08,3.42,8.35c0,0,0,0,0,0,2.28,2.23,5.1,3.37,8.38,3.37s6.02-1.13,8.31-3.38c2.29-2.29,3.46-5.1,3.46-8.35s-1.17-6.06-3.46-8.31M78.88,26.99c-2.05,0-3.82-.72-5.24-2.15-1.4-1.4-2.11-3.17-2.11-5.24s.71-3.84,2.11-5.24c1.43-1.43,3.19-2.15,5.24-2.15s3.76.7,5.2,2.15c1.4,1.4,2.11,3.17,2.11,5.24s-.71,3.84-2.11,5.24c-1.45,1.45-3.15,2.15-5.2,2.15"/>
      <path class="cls-1" d="M86.19,32.53c0,2.08-.71,3.84-2.11,5.24-1.45,1.45-3.15,2.15-5.2,2.15s-3.82-.72-5.24-2.15c-1.4-1.4-2.11-3.17-2.11-5.24h-4.45c0,3.27,1.15,6.08,3.42,8.35,0,0,0,0,0,0,2.28,2.23,5.1,3.37,8.38,3.37s6.02-1.13,8.31-3.38c2.29-2.29,3.46-5.1,3.46-8.35h-4.45Z"/>
      <rect class="cls-2" x="58.84" y="8.06" width="4.44" height="22.7"/>
      <rect class="cls-2" x="58.84" y="0" width="4.44" height="4.14"/>
      <path class="cls-2" d="M19.3,7.61c-2.45,0-4.77.67-6.35,2.01v-1.56h-4.44v22.7h4.44v-11.92c0-4.3,2.5-6.87,6.19-6.87,3.03,0,5.05,2.06,5.05,5.22v13.57h4.48v-13.57c0-5.58-3.94-9.58-9.37-9.58"/>
    </g>
  </g>
</svg>