<?xml version="1.0" encoding="UTF-8"?>
<svg xmlns="http://www.w3.org/2000/svg" viewBox="0 0 251.02 125.67">
  <defs>
    <style>
      .cls-1 {
        fill: #606eb2;
      }

      .cls-2 {
        isolation: isolate;
      }

      .cls-3 {
        mix-blend-mode: multiply;
        opacity: .15;
      }
    </style>
  </defs>
  <g class="cls-2">
    <g id="Capa_2" data-name="Capa 2">
      <g id="Diseño">
        <g class="cls-3">
          <path class="cls-1" d="M125.47,0v47.47s.22,0,.22,0c1.99,0,4,.08,5.96.22L135.2.36C132.06.12,128.86,0,125.69,0h-.22ZM141.45,49.06c1.93.39,3.87.87,5.77,1.41l13.01-45.65c-3.05-.87-6.17-1.63-9.27-2.27l-9.51,46.51ZM156.53,53.78c1.81.78,3.61,1.64,5.35,2.55l22.03-42.05c-2.81-1.47-5.72-2.86-8.65-4.11l-18.73,43.62ZM170.36,61.47c1.62,1.13,3.22,2.33,4.75,3.59l30.01-36.78c-2.46-2.01-5.02-3.94-7.62-5.75l-27.14,38.95ZM182.38,71.79c1.37,1.44,2.69,2.94,3.94,4.47l36.77-30.03c-2-2.45-4.12-4.85-6.3-7.15l-34.4,32.71ZM192.08,84.31c1.04,1.67,2.04,3.4,2.96,5.16l42.04-22.04c-1.47-2.81-3.07-5.6-4.74-8.27l-40.26,25.16ZM199.06,98.49c.68,1.84,1.3,3.74,1.85,5.63l45.64-13.05c-.87-3.06-1.88-6.11-2.98-9.09l-44.51,16.51ZM203.01,113.78c.3,1.95.52,3.94.67,5.92l47.34-3.59c-.24-3.16-.6-6.35-1.08-9.47l-46.93,7.14Z"/>
          <path class="cls-1" d="M125.67,47.46h0c-43.19,0-78.21,35.01-78.21,78.21H0C0,56.26,56.26,0,125.67,0h0v47.46Z"/>
        </g>
      </g>
    </g>
  </g>
</svg>