<?xml version="1.0" encoding="UTF-8"?>
<svg id="Capa_2" data-name="Capa 2" xmlns="http://www.w3.org/2000/svg" viewBox="0 0 331.68 166.05">
  <defs>
    <style>
      .cls-1 {
        fill: #bbdde6;
      }

      .cls-2 {
        fill: #b0b0b0;
        opacity: .15;
      }
    </style>
  </defs>
  <g id="Diseño">
    <g>
      <path class="cls-2" d="M165.9,0v62.72s-.29,0-.29,0c-2.63,0-5.28.1-7.88.29L153.03.47C157.18.16,161.41,0,165.6,0h.29ZM144.78,64.82c-2.55.52-5.11,1.15-7.63,1.86L119.95,6.36c4.03-1.15,8.16-2.16,12.25-3l12.57,61.45ZM124.85,71.06c-2.4,1.03-4.78,2.16-7.07,3.36l-29.1-55.56c3.72-1.95,7.56-3.77,11.43-5.43l24.75,57.63ZM106.58,81.22c-2.14,1.49-4.25,3.08-6.28,4.74l-39.66-48.6c3.25-2.65,6.64-5.21,10.07-7.6l35.87,51.46ZM90.7,94.86c-1.81,1.9-3.56,3.88-5.21,5.91l-48.58-39.68c2.64-3.23,5.45-6.41,8.33-9.45l45.46,43.22ZM77.87,111.4c-1.38,2.2-2.69,4.5-3.91,6.82l-55.55-29.12c1.95-3.71,4.06-7.39,6.27-10.93l53.19,33.24ZM68.66,130.14c-.9,2.43-1.72,4.94-2.44,7.44L5.91,120.33c1.16-4.04,2.48-8.08,3.94-12.01l58.81,21.82ZM63.44,150.34c-.39,2.57-.69,5.2-.89,7.82L0,153.41c.32-4.18.8-8.39,1.42-12.51l62.01,9.44Z"/>
      <path class="cls-1" d="M165.63,62.71h0c57.07,0,103.34,46.26,103.34,103.34h62.71C331.68,74.34,257.34,0,165.63,0h0v62.71Z"/>
    </g>
  </g>
</svg>