<?xml version="1.0" encoding="UTF-8"?>
<svg id="Capa_2" data-name="Capa 2" xmlns="http://www.w3.org/2000/svg" viewBox="0 0 104.11 69.02">
  <defs>
    <style>
      .cls-1 {
        fill: #bbdde6;
      }
    </style>
  </defs>
  <g id="Diseño">
    <g>
      <path class="cls-1" d="M100.55,1.91c.98,0,1.82.34,2.52,1.04.7.7,1.04,1.54,1.04,2.52s-.35,1.82-1.04,2.52c-.7.7-1.54,1.04-2.52,1.04s-1.82-.34-2.52-1.04c-.7-.7-1.04-1.54-1.04-2.52s.35-1.82,1.04-2.52c.7-.7,1.54-1.04,2.52-1.04M102.62,7.57c.57-.58.86-1.28.86-2.1s-.29-1.52-.86-2.1c-.57-.58-1.27-.87-2.07-.87s-1.51.29-2.08.87c-.57.58-.86,1.28-.86,2.1s.29,1.52.86,2.1c.57.58,1.27.87,2.08.87s1.5-.29,2.07-.87M101.53,5.95l.75,1.34h-1.13l-.52-1.08h-.37v1.08h-1.05v-3.64h1.47c.8,0,1.41.5,1.41,1.21,0,.47-.18.84-.54,1.09M100.25,4.6v.72h.33c.28,0,.44-.15.44-.35,0-.25-.15-.36-.44-.36h-.33Z"/>
      <path class="cls-1" d="M88.66,6.48C84.36,2.18,79.06,0,72.9,0s-11.61,2.18-15.9,6.46c-4.31,4.23-6.5,9.53-6.5,15.78s2.18,11.54,6.48,15.84c0,0,.01,0,.02.02,4.32,4.24,9.67,6.39,15.9,6.39s11.42-2.15,15.76-6.4c4.35-4.35,6.56-9.68,6.56-15.84s-2.21-11.5-6.56-15.76"/>
      <path class="cls-1" d="M38.15,6.48C33.85,2.18,28.55,0,22.39,0S10.78,2.18,6.5,6.46C2.18,10.69,0,16,0,22.24s2.18,11.54,6.48,15.84c0,0,.01.01.01.02,4.32,4.24,9.67,6.39,15.9,6.39s11.42-2.15,15.76-6.4c4.35-4.35,6.56-9.68,6.56-15.84s-2.21-11.5-6.56-15.76M22.39,36.27c-3.89,0-7.24-1.37-9.95-4.08-2.66-2.66-4-6-4-9.95s1.35-7.29,4-9.95c2.71-2.71,6.05-4.08,9.95-4.08s7.13,1.33,9.87,4.08c2.66,2.66,4,6,4,9.95s-1.35,7.29-4,9.95c-2.75,2.75-5.97,4.08-9.87,4.08"/>
      <path class="cls-1" d="M36.27,46.78c0,3.94-1.35,7.29-4,9.95-2.74,2.75-5.97,4.08-9.87,4.08s-7.24-1.37-9.95-4.08c-2.66-2.66-4-6-4-9.95H0C0,52.99,2.18,58.32,6.48,62.62c0,0,0,.01.01.02,4.32,4.24,9.67,6.39,15.9,6.39s11.42-2.15,15.76-6.4c4.35-4.35,6.56-9.68,6.56-15.84h-8.44Z"/>
    </g>
  </g>
</svg>