<?xml version="1.0" encoding="UTF-8"?>
<svg xmlns="http://www.w3.org/2000/svg" viewBox="0 0 987.18 494.21">
  <defs>
    <style>
      .cls-1 {
        fill: #606eb2;
      }

      .cls-2 {
        isolation: isolate;
      }

      .cls-3 {
        mix-blend-mode: multiply;
        opacity: .15;
      }
    </style>
  </defs>
  <g class="cls-2">
    <g id="Capa_2" data-name="Capa 2">
      <g id="Fondo">
        <g class="cls-3">
          <path class="cls-1" d="M493.76,0v186.69s-.87,0-.87,0c-7.83,0-15.72.3-23.45.87L455.46,1.4C467.82.47,480.41,0,492.88,0h.87ZM430.89,192.92c-7.58,1.55-15.22,3.42-22.7,5.55l-51.18-179.54c12-3.42,24.27-6.42,36.47-8.92l37.41,182.91ZM371.6,211.49c-7.13,3.07-14.21,6.43-21.05,10.01l-86.62-165.37c11.06-5.79,22.5-11.23,34.01-16.17l73.67,171.54ZM317.22,241.74c-6.36,4.43-12.65,9.18-18.68,14.1l-118.03-144.65c9.68-7.89,19.75-15.5,29.96-22.62l106.75,153.16ZM269.95,282.34c-5.37,5.65-10.59,11.56-15.5,17.58l-144.6-118.1c7.87-9.63,16.21-19.09,24.79-28.12l135.3,128.64ZM231.77,331.57c-4.1,6.56-8.01,13.39-11.63,20.29l-165.34-86.68c5.8-11.05,12.07-22,18.66-32.54l158.32,98.94ZM204.35,387.34c-2.69,7.24-5.13,14.69-7.26,22.15l-179.49-51.34c3.44-12.02,7.38-24.04,11.72-35.74l175.04,64.93ZM188.8,447.45c-1.17,7.65-2.06,15.49-2.65,23.28L0,456.59c.94-12.44,2.37-24.97,4.24-37.24l184.57,28.1Z"/>
          <path class="cls-1" d="M492.97,186.66h0c169.86,0,307.56,137.7,307.56,307.56h186.66C987.18,221.27,765.91,0,492.97,0h0v186.66Z"/>
        </g>
      </g>
    </g>
  </g>
</svg>