<?xml version="1.0" encoding="UTF-8"?>
<svg id="Capa_2" data-name="Capa 2" xmlns="http://www.w3.org/2000/svg" viewBox="0 0 241.66 87.7">
  <defs>
    <style>
      .cls-1 {
        fill: #fff;
      }
    </style>
  </defs>
  <g id="Diseño">
    <g>
      <path class="cls-1" d="M98.82,0v20.29c-3.98-2.93-8.5-5.07-13.77-5.07-6.54,0-12.16,2.27-16.7,6.75-4.46,4.4-6.72,9.94-6.72,16.48,0,6.53,2.26,12.08,6.72,16.48,4.55,4.48,10.16,6.76,16.7,6.76,5.27,0,9.8-2.07,13.77-5.01v4.26h8.79s0-16.51,0-16.51v-11.97s0,0,0,0V0s-8.79,0-8.79,0ZM95.34,48.85c-2.87,2.87-6.24,4.26-10.31,4.26-4.07,0-7.57-1.43-10.39-4.26s-4.18-6.27-4.18-10.39c0-4.12,1.41-7.62,4.18-10.39,2.83-2.83,6.32-4.26,10.39-4.26,4.07,0,7.44,1.39,10.31,4.26,2.77,2.77,4.18,6.27,4.18,10.39,0,4.12-1.41,7.62-4.18,10.39"/>
      <rect class="cls-1" x="0" y="0" width="8.79" height="8.21"/>
      <rect class="cls-1" x="0" y="15.97" width="8.79" height="44.98"/>
      <path class="cls-1" d="M237.94,17.58c1.03,0,1.9.36,2.63,1.09.73.73,1.09,1.6,1.09,2.63s-.36,1.9-1.09,2.63c-.73.73-1.6,1.09-2.63,1.09-1.03,0-1.9-.36-2.63-1.09-.73-.73-1.09-1.6-1.09-2.63,0-1.03.36-1.9,1.09-2.63.73-.73,1.6-1.09,2.63-1.09M240.1,23.5c.6-.6.9-1.33.9-2.19s-.3-1.59-.9-2.19c-.6-.6-1.32-.91-2.16-.91s-1.58.3-2.17.91-.9,1.33-.9,2.19c0,.86.3,1.59.9,2.19s1.32.91,2.17.91,1.57-.3,2.16-.91M238.97,21.81l.78,1.4h-1.18s-.54-1.13-.54-1.13h-.39v1.13s-1.1,0-1.1,0v-3.81s1.53,0,1.53,0c.83,0,1.47.53,1.47,1.26,0,.49-.18.87-.56,1.14M237.63,20.4v.75h.34c.29,0,.46-.15.46-.37,0-.26-.15-.38-.46-.38h-.34Z"/>
      <path class="cls-1" d="M225.52,22.36c-4.49-4.49-10.03-6.77-16.46-6.77-6.54,0-12.13,2.28-16.61,6.75-4.5,4.41-6.79,9.96-6.79,16.48,0,6.49,2.28,12.05,6.77,16.55,0,0,.01,0,.02.02,4.52,4.43,10.1,6.67,16.61,6.67,6.4,0,11.93-2.24,16.46-6.69,4.55-4.55,6.85-10.11,6.85-16.55,0-6.47-2.31-12.01-6.85-16.46"/>
      <path class="cls-1" d="M172.76,22.36c-4.49-4.49-10.03-6.77-16.46-6.77-6.54,0-12.13,2.28-16.61,6.75-4.5,4.42-6.79,9.96-6.79,16.48,0,6.49,2.28,12.05,6.77,16.54,0,0,.01.01.02.02,4.52,4.43,10.1,6.67,16.61,6.67,6.4,0,11.93-2.24,16.46-6.69,4.55-4.55,6.85-10.11,6.85-16.54s-2.31-12.01-6.85-16.46M156.3,53.48c-4.07,0-7.57-1.43-10.39-4.26-2.78-2.77-4.18-6.27-4.18-10.39,0-4.12,1.41-7.62,4.18-10.39,2.83-2.83,6.32-4.26,10.39-4.26,4.07,0,7.44,1.39,10.31,4.26,2.77,2.77,4.18,6.27,4.18,10.39s-1.41,7.62-4.18,10.39c-2.87,2.87-6.24,4.26-10.31,4.26"/>
      <path class="cls-1" d="M170.79,64.46c0,4.12-1.41,7.62-4.18,10.39-2.87,2.87-6.24,4.26-10.31,4.26-4.07,0-7.57-1.43-10.39-4.26-2.77-2.77-4.18-6.27-4.18-10.39h-8.82c0,6.49,2.28,12.05,6.77,16.54,0,0,0,0,.02.02,4.52,4.43,10.1,6.67,16.61,6.67,6.4,0,11.93-2.24,16.46-6.69,4.55-4.55,6.85-10.11,6.85-16.54h-8.82Z"/>
      <rect class="cls-1" x="116.59" y="15.96" width="8.79" height="44.98"/>
      <rect class="cls-1" x="116.59" y="0" width="8.79" height="8.21"/>
      <path class="cls-1" d="M38.25,15.08c-4.86,0-9.46,1.33-12.59,3.98l-.02-3.09h-2.37s-6.41,0-6.41,0v44.98s8.8,0,8.8,0v-23.62c0-8.53,4.95-13.62,12.27-13.62,6,0,10.02,4.09,10.02,10.34v26.89s8.88,0,8.88,0v-26.89c0-11.05-7.81-18.98-18.57-18.98"/>
    </g>
  </g>
</svg>