<?xml version="1.0" encoding="UTF-8"?>
<svg id="Capa_2" data-name="Capa 2" xmlns="http://www.w3.org/2000/svg" viewBox="0 0 251.02 125.67">
  <defs>
    <style>
      .cls-1 {
        fill: #606eb2;
      }

      .cls-2 {
        fill: #b0b0b0;
      }
    </style>
  </defs>
  <g id="Diseño">
    <g>
      <path class="cls-2" d="M125.55,125.67v-47.47s-.22,0-.22,0c-1.99,0-4-.08-5.96-.22l-3.55,47.34c3.14.24,6.34.36,9.52.36h.22ZM109.57,76.61c-1.93-.39-3.87-.87-5.77-1.41l-13.01,45.65c3.05.87,6.17,1.63,9.27,2.27l9.51-46.51ZM94.49,71.89c-1.81-.78-3.61-1.64-5.35-2.55l-22.03,42.05c2.81,1.47,5.72,2.86,8.65,4.11l18.73-43.62ZM80.66,64.2c-1.62-1.13-3.22-2.33-4.75-3.59l-30.01,36.78c2.46,2.01,5.02,3.94,7.62,5.75l27.14-38.95ZM68.64,53.88c-1.37-1.44-2.69-2.94-3.94-4.47l-36.77,30.03c2,2.45,4.12,4.85,6.3,7.15l34.4-32.71ZM58.94,41.36c-1.04-1.67-2.04-3.4-2.96-5.16L13.93,58.24c1.47,2.81,3.07,5.6,4.74,8.27l40.26-25.16ZM51.96,27.18c-.68-1.84-1.3-3.74-1.85-5.63L4.47,34.6c.87,3.06,1.88,6.11,2.98,9.09l44.51-16.51ZM48.01,11.89c-.3-1.95-.52-3.94-.67-5.92L0,9.57c.24,3.16.6,6.35,1.08,9.47l46.93-7.14Z"/>
      <path class="cls-1" d="M125.35,78.21h0c43.19,0,78.21-35.01,78.21-78.21h47.46c0,69.4-56.26,125.67-125.67,125.67h0v-47.46Z"/>
    </g>
  </g>
</svg>