<?xml version="1.0" encoding="UTF-8"?>
<svg id="Capa_2" data-name="Capa 2" xmlns="http://www.w3.org/2000/svg" viewBox="0 0 23.16 23.16">
  <defs>
    <style>
      .cls-1 {
        font-family: TTNorms-ExtraBold, 'TT Norms';
        font-size: 12.34px;
        font-weight: 700;
      }

      .cls-1, .cls-2 {
        fill: #a7e6d7;
      }
    </style>
  </defs>
  <g id="Texto">
    <g>
      <text class="cls-1" transform="translate(7.83 15.82)"><tspan x="0" y="0">3</tspan></text>
      <path class="cls-2" d="M11.58,0c-.56,0-.89.03-1.31.06l.27,2.64c.33-.03.65-.06,1.04-.06,4.96,0,8.94,4.01,8.94,8.94s-3.98,8.94-8.94,8.94c-.39,0-.68-.03-1.01-.06l-.3,2.64c.42.06.74.06,1.31.06,6.27,0,11.58-5.2,11.58-11.58S17.85,0,11.58,0ZM1.69,17.76c.48.74,1.01,1.43,1.63,2.02l1.87-1.87c-.48-.48-.89-1.01-1.25-1.57l-2.26,1.43ZM8.55,3.15l-.89-2.52c-.83.3-1.6.65-2.35,1.13l1.43,2.26c.59-.36,1.19-.62,1.81-.86ZM5.35,21.41c.74.48,1.51.83,2.35,1.13l.89-2.52c-.62-.21-1.25-.5-1.81-.86l-1.43,2.26ZM2.64,12.59l-2.64.3c.09.86.3,1.72.56,2.52l2.52-.89c-.24-.62-.39-1.28-.45-1.93ZM5.2,5.26l-1.87-1.87c-.62.62-1.16,1.31-1.63,2.02l2.26,1.43c.36-.56.77-1.1,1.25-1.57ZM3.09,8.64l-2.52-.89c-.3.83-.48,1.66-.56,2.52l2.64.3c.06-.65.21-1.31.45-1.93Z"/>
    </g>
  </g>
</svg>