<?xml version="1.0" encoding="UTF-8"?>
<svg id="Capa_2" data-name="Capa 2" xmlns="http://www.w3.org/2000/svg" viewBox="0 0 54.34 36.02">
  <defs>
    <style>
      .cls-1 {
        fill: #606eb2;
      }
    </style>
  </defs>
  <g id="Diseño">
    <g>
      <path class="cls-1" d="M52.48.99c.51,0,.95.18,1.31.54.36.37.54.8.54,1.32s-.18.95-.54,1.32c-.36.36-.8.54-1.31.54s-.95-.18-1.32-.54c-.36-.37-.54-.8-.54-1.32s.18-.95.54-1.32c.36-.36.8-.54,1.32-.54M53.56,3.95c.3-.3.45-.67.45-1.1s-.15-.79-.45-1.1c-.3-.3-.66-.45-1.08-.45s-.79.15-1.09.45c-.3.3-.45.67-.45,1.1s.15.79.45,1.1c.3.3.66.45,1.09.45s.78-.15,1.08-.45M52.99,3.11l.39.7h-.59l-.27-.57h-.19v.57h-.55v-1.9h.77c.42,0,.73.26.73.63,0,.25-.09.44-.28.57M52.32,2.4v.38h.17c.14,0,.23-.08.23-.19,0-.13-.08-.19-.23-.19h-.17Z"/>
      <path class="cls-1" d="M46.27,3.38C44.03,1.14,41.26,0,38.05,0s-6.06,1.14-8.3,3.37c-2.25,2.21-3.39,4.98-3.39,8.23s1.14,6.02,3.38,8.27c0,0,0,0,0,0,2.26,2.21,5.05,3.33,8.3,3.33s5.96-1.12,8.23-3.34c2.27-2.27,3.42-5.05,3.42-8.27s-1.15-6-3.42-8.23"/>
      <path class="cls-1" d="M19.91,3.38C17.67,1.14,14.9,0,11.69,0S5.63,1.14,3.39,3.37C1.14,5.58,0,8.35,0,11.61s1.14,6.02,3.38,8.27c0,0,0,0,0,0,2.26,2.21,5.05,3.33,8.3,3.33s5.96-1.12,8.23-3.34c2.27-2.27,3.42-5.05,3.42-8.27s-1.15-6-3.42-8.23M11.69,18.93c-2.03,0-3.78-.72-5.19-2.13-1.39-1.39-2.09-3.13-2.09-5.19s.7-3.81,2.09-5.19c1.41-1.41,3.16-2.13,5.19-2.13s3.72.7,5.15,2.13c1.39,1.39,2.09,3.13,2.09,5.19s-.7,3.81-2.09,5.19c-1.43,1.43-3.12,2.13-5.15,2.13"/>
      <path class="cls-1" d="M18.93,24.42c0,2.06-.7,3.81-2.09,5.19-1.43,1.43-3.12,2.13-5.15,2.13s-3.78-.72-5.19-2.13c-1.39-1.39-2.09-3.13-2.09-5.19H0C0,27.66,1.14,30.44,3.38,32.68c0,0,0,0,0,0,2.26,2.21,5.05,3.33,8.3,3.33s5.96-1.12,8.23-3.34c2.27-2.27,3.42-5.05,3.42-8.27h-4.41Z"/>
    </g>
  </g>
</svg>