<?xml version="1.0" encoding="UTF-8"?>
<svg id="Capa_2" data-name="Capa 2" xmlns="http://www.w3.org/2000/svg" viewBox="0 0 21.99 21.99">
  <defs>
    <style>
      .cls-1, .cls-2 {
        fill: #ffa38b;
      }

      .cls-2 {
        fill-rule: evenodd;
      }
    </style>
  </defs>
  <g id="Texto">
    <g>
      <path class="cls-1" d="M15.7,8.7c.39-.39.39-1.02,0-1.41s-1.02-.39-1.41,0l-5.29,5.29-1.29-1.29c-.39-.39-1.02-.39-1.41,0-.39.39-.39,1.02,0,1.41l2,2c.39.39,1.02.39,1.41,0l6-6Z"/>
      <path class="cls-2" d="M10.99,0c-.94,0-1.79.44-2.33,1.12-.06.08-.12.14-.17.17-.05.04-.07.04-.08.05,0,0-.03,0-.09,0-.06,0-.14-.03-.24-.07-.81-.31-1.76-.27-2.58.2-.82.47-1.33,1.28-1.46,2.14-.02.1-.04.18-.06.23-.02.05-.04.07-.04.08,0,0-.03.02-.08.04-.05.02-.13.04-.23.06-.86.13-1.67.65-2.14,1.46-.47.82-.51,1.77-.2,2.58.04.1.06.18.07.24,0,.06,0,.08,0,.09,0,0-.01.04-.05.08-.04.05-.09.11-.17.17-.68.55-1.12,1.39-1.12,2.33s.44,1.79,1.12,2.33c.08.06.14.12.17.17.04.05.04.07.05.08,0,0,0,.03,0,.09,0,.06-.03.14-.07.24-.31.81-.27,1.76.2,2.58.47.82,1.28,1.33,2.14,1.46.1.02.18.04.23.06.05.02.07.04.08.05,0,0,.02.02.04.08.02.05.04.13.06.23.13.86.64,1.67,1.46,2.14.82.47,1.77.52,2.58.2.1-.04.18-.06.24-.07.06,0,.08,0,.09,0,0,0,.04.01.08.05.05.04.11.09.17.17.55.68,1.39,1.12,2.33,1.12s1.79-.44,2.33-1.12c.06-.08.12-.14.17-.17.05-.04.07-.04.08-.05,0,0,.03,0,.09,0,.06,0,.14.03.24.07.81.31,1.76.27,2.58-.2.82-.47,1.33-1.28,1.46-2.14.02-.1.04-.18.06-.23.02-.05.04-.07.05-.08,0,0,.02-.02.08-.05.05-.02.13-.04.23-.06.86-.13,1.67-.65,2.14-1.46.47-.82.52-1.77.2-2.58-.04-.1-.06-.18-.07-.24,0-.06,0-.08,0-.09,0,0,.01-.04.05-.08.04-.05.09-.11.17-.17.68-.55,1.12-1.39,1.12-2.33s-.44-1.79-1.12-2.33c-.08-.06-.14-.12-.17-.17-.04-.05-.04-.07-.05-.08,0,0,0-.03,0-.09,0-.06.03-.14.07-.24.31-.81.27-1.76-.2-2.58-.47-.82-1.28-1.33-2.14-1.46-.1-.01-.18-.04-.23-.06-.05-.02-.07-.04-.08-.04,0,0-.02-.03-.05-.08-.02-.05-.04-.13-.06-.23-.13-.86-.65-1.67-1.46-2.14-.82-.47-1.77-.51-2.58-.2-.1.04-.18.06-.24.07-.06,0-.08,0-.09,0,0,0-.04-.01-.08-.05-.05-.04-.11-.09-.17-.17C12.78.44,11.94,0,10.99,0ZM10.21,2.37c.18-.23.46-.37.78-.37s.59.14.78.37c.27.33.69.74,1.29.9.61.16,1.17.02,1.56-.13.27-.11.59-.09.86.07.27.16.44.42.49.71.06.42.22.98.67,1.42s1,.6,1.42.67c.29.04.56.22.71.49.16.27.17.59.07.86-.15.39-.29.96-.13,1.56.16.6.57,1.03.9,1.29.23.18.37.46.37.78s-.14.59-.37.78c-.33.27-.74.69-.9,1.29-.16.61-.02,1.17.13,1.56.11.27.09.59-.07.86-.16.27-.42.44-.71.49-.42.06-.98.22-1.42.67-.44.44-.6,1-.67,1.42-.04.29-.22.56-.49.71-.27.16-.59.17-.86.07-.39-.15-.96-.29-1.56-.13-.6.16-1.03.57-1.29.9-.18.23-.46.37-.78.37s-.59-.14-.78-.37c-.27-.33-.69-.74-1.29-.9-.61-.16-1.17-.02-1.56.13-.27.11-.59.09-.86-.07-.27-.16-.44-.42-.49-.71-.06-.42-.22-.98-.67-1.42-.44-.44-1-.6-1.42-.67-.29-.04-.56-.22-.71-.49-.16-.27-.17-.59-.07-.86.15-.39.29-.96.13-1.56-.16-.6-.57-1.03-.9-1.29-.23-.18-.37-.46-.37-.78s.14-.59.37-.78c.33-.27.74-.69.9-1.29.16-.61.02-1.17-.13-1.56-.11-.27-.09-.59.07-.86.16-.27.42-.44.71-.49.42-.06.98-.22,1.42-.67s.6-1,.67-1.42c.04-.29.22-.56.49-.71.27-.16.59-.17.86-.07.39.15.96.29,1.56.13.6-.16,1.03-.57,1.29-.9Z"/>
    </g>
  </g>
</svg>