<?xml version="1.0" encoding="UTF-8"?>
<svg id="Capa_2" data-name="Capa 2" xmlns="http://www.w3.org/2000/svg" viewBox="0 0 330.49 263.03">
  <defs>
    <style>
      .cls-1 {
        fill: #606eb2;
      }

      .cls-2 {
        fill: #c1a7e2;
      }

      .cls-3 {
        fill: #bbdde6;
      }

      .cls-4 {
        fill: #b0b0b0;
        opacity: .15;
      }
    </style>
  </defs>
  <g id="Diseño">
    <path class="cls-4" d="M320.79,141.1c-6.36-6.36-14.2-9.58-23.3-9.58s-17.17,3.22-23.5,9.56c-6.37,6.25-9.6,14.09-9.6,23.32s3.22,17.06,9.58,23.41c0,0,.02.02.02.02,6.39,6.27,14.3,9.44,23.5,9.44s16.89-3.18,23.3-9.47c6.43-6.43,9.69-14.31,9.69-23.41s-3.27-17-9.69-23.3Z"/>
    <path class="cls-4" d="M56.4,9.58C50.05,3.22,42.21,0,33.11,0S15.94,3.22,9.6,9.56C3.23,15.8,0,23.65,0,32.88s3.22,17.06,9.58,23.41c0,0,.02.02.02.02,6.39,6.27,14.3,9.44,23.5,9.44s16.89-3.18,23.3-9.47c6.43-6.43,9.69-14.31,9.69-23.41s-3.27-17-9.69-23.3Z"/>
    <path class="cls-4" d="M188.6,9.58c-6.36-6.36-14.2-9.58-23.3-9.58s-17.17,3.22-23.5,9.56c-6.37,6.25-9.6,14.09-9.6,23.32s3.22,17.06,9.58,23.41c0,0,.02.02.02.02,6.39,6.27,14.3,9.44,23.5,9.44s16.89-3.18,23.3-9.47c6.43-6.43,9.69-14.31,9.69-23.41s-3.27-17-9.69-23.3Z"/>
    <path class="cls-4" d="M254.7,9.58c-6.36-6.36-14.2-9.58-23.3-9.58s-17.17,3.22-23.5,9.56c-6.37,6.25-9.6,14.09-9.6,23.32s3.22,17.06,9.58,23.41c0,0,.02.02.02.02,6.39,6.27,14.3,9.44,23.5,9.44s16.89-3.18,23.3-9.47c6.43-6.43,9.69-14.31,9.69-23.41s-3.27-17-9.69-23.3Z"/>
    <path class="cls-1" d="M320.79,9.58c-6.36-6.36-14.2-9.58-23.3-9.58s-17.17,3.22-23.5,9.56c-6.37,6.25-9.6,14.09-9.6,23.32s3.22,17.06,9.58,23.41c0,0,.02.02.02.02,6.39,6.27,14.3,9.44,23.5,9.44s16.89-3.18,23.3-9.47c6.43-6.43,9.69-14.31,9.69-23.41s-3.27-17-9.69-23.3Z"/>
    <path class="cls-4" d="M122.5,9.58c-6.36-6.36-14.2-9.58-23.3-9.58s-17.17,3.22-23.5,9.56c-6.37,6.25-9.6,14.09-9.6,23.32s3.22,17.06,9.58,23.41c0,0,.02.02.02.02,6.39,6.27,14.3,9.44,23.5,9.44s16.89-3.18,23.3-9.47c6.43-6.43,9.69-14.31,9.69-23.41s-3.27-17-9.69-23.3Z"/>
    <path class="cls-1" d="M56.4,206.85c-6.36-6.36-14.2-9.58-23.3-9.58s-17.17,3.22-23.5,9.56c-6.37,6.25-9.6,14.09-9.6,23.32s3.22,17.06,9.58,23.41c0,0,.02.02.02.02,6.39,6.27,14.3,9.44,23.5,9.44s16.89-3.18,23.3-9.47c6.43-6.43,9.69-14.31,9.69-23.41s-3.27-17-9.69-23.3Z"/>
    <path class="cls-4" d="M188.6,206.85c-6.36-6.36-14.2-9.58-23.3-9.58s-17.17,3.22-23.5,9.56c-6.37,6.25-9.6,14.09-9.6,23.32s3.22,17.06,9.58,23.41c0,0,.02.02.02.02,6.39,6.27,14.3,9.44,23.5,9.44s16.89-3.18,23.3-9.47c6.43-6.43,9.69-14.31,9.69-23.41s-3.27-17-9.69-23.3Z"/>
    <path class="cls-4" d="M122.5,206.85c-6.36-6.36-14.2-9.58-23.3-9.58s-17.17,3.22-23.5,9.56c-6.37,6.25-9.6,14.09-9.6,23.32s3.22,17.06,9.58,23.41c0,0,.02.02.02.02,6.39,6.27,14.3,9.44,23.5,9.44s16.89-3.18,23.3-9.47c6.43-6.43,9.69-14.31,9.69-23.41s-3.27-17-9.69-23.3Z"/>
    <path class="cls-4" d="M254.7,206.85c-6.36-6.36-14.2-9.58-23.3-9.58s-17.17,3.22-23.5,9.56c-6.37,6.25-9.6,14.09-9.6,23.32s3.22,17.06,9.58,23.41c0,0,.02.02.02.02,6.39,6.27,14.3,9.44,23.5,9.44s16.89-3.18,23.3-9.47c6.43-6.43,9.69-14.31,9.69-23.41s-3.27-17-9.69-23.3Z"/>
    <path class="cls-4" d="M320.79,206.85c-6.36-6.36-14.2-9.58-23.3-9.58s-17.17,3.22-23.5,9.56c-6.37,6.25-9.6,14.09-9.6,23.32s3.22,17.06,9.58,23.41c0,0,.02.02.02.02,6.39,6.27,14.3,9.44,23.5,9.44s16.89-3.18,23.3-9.47c6.43-6.43,9.69-14.31,9.69-23.41s-3.27-17-9.69-23.3Z"/>
    <path class="cls-4" d="M56.4,75.34c-6.36-6.36-14.2-9.58-23.3-9.58s-17.17,3.22-23.5,9.56c-6.37,6.25-9.6,14.09-9.6,23.32s3.22,17.06,9.58,23.41c0,0,.02.02.02.02,6.39,6.27,14.3,9.44,23.5,9.44s16.89-3.18,23.3-9.47c6.43-6.43,9.69-14.31,9.69-23.41s-3.27-17-9.69-23.3Z"/>
    <path class="cls-2" d="M51.38,133.76c0,5.2-1.77,9.61-5.27,13.11-3.62,3.62-7.87,5.38-13.01,5.38s-9.54-1.81-13.11-5.38c-3.5-3.5-5.27-7.91-5.27-13.11H3.59c0,8.18,2.87,15.2,8.54,20.87,0,0,.01.01.02.02,5.7,5.59,12.75,8.42,20.95,8.42s15.05-2.83,20.77-8.44c5.73-5.73,8.64-12.76,8.64-20.87h-11.13Z"/>
    <path class="cls-2" d="M14.72,195.03c0-5.2,1.77-9.61,5.27-13.11,3.62-3.62,7.87-5.38,13.01-5.38s9.54,1.81,13.11,5.38c3.5,3.5,5.27,7.91,5.27,13.11h11.13c0-8.18-2.87-15.2-8.54-20.87,0,0-.01-.01-.02-.02-5.7-5.59-12.75-8.42-20.95-8.42s-15.05,2.83-20.77,8.44c-5.73,5.73-8.64,12.76-8.64,20.87h11.13Z"/>
    <g>
      <path class="cls-3" d="M279.11,129.27c0-5.2,1.77-9.61,5.27-13.11,3.62-3.62,7.87-5.38,13.01-5.38s9.54,1.81,13.11,5.38c3.5,3.5,5.27,7.91,5.27,13.11h11.13c0-8.18-2.87-15.2-8.54-20.87,0,0-.01-.01-.02-.02-5.7-5.59-12.75-8.42-20.95-8.42s-15.05,2.83-20.77,8.44c-5.73,5.73-8.64,12.76-8.64,20.87h11.13Z"/>
      <path class="cls-3" d="M315.77,68.01c0,5.2-1.77,9.61-5.27,13.11-3.62,3.62-7.87,5.38-13.01,5.38s-9.54-1.81-13.11-5.38c-3.5-3.5-5.27-7.91-5.27-13.11h-11.13c0,8.18,2.87,15.2,8.54,20.87,0,0,.01.01.02.02,5.7,5.59,12.75,8.42,20.95,8.42s15.05-2.83,20.77-8.44c5.73-5.73,8.64-12.76,8.64-20.87h-11.13Z"/>
    </g>
  </g>
</svg>